<svg xmlns="http://www.w3.org/2000/svg" viewBox="0 0 1800 1200" role="img" aria-label="Blauwe abstracte zorgomgeving">
  <defs>
    <linearGradient id="sky" x1="0" x2="1" y1="0" y2="1">
      <stop offset="0" stop-color="#092044"/>
      <stop offset=".55" stop-color="#2868c7"/>
      <stop offset="1" stop-color="#dbeafe"/>
    </linearGradient>
    <radialGradient id="light" cx=".62" cy=".34" r=".54">
      <stop offset="0" stop-color="#eff6ff" stop-opacity=".84"/>
      <stop offset=".5" stop-color="#7db2ff" stop-opacity=".26"/>
      <stop offset="1" stop-color="#14233b" stop-opacity="0"/>
    </radialGradient>
    <filter id="soft" x="-20%" y="-20%" width="140%" height="140%">
      <feGaussianBlur stdDeviation="18"/>
    </filter>
  </defs>
  <rect width="1800" height="1200" fill="url(#sky)"/>
  <rect width="1800" height="1200" fill="url(#light)"/>
  <path fill="#ffffff" fill-opacity=".82" d="M0 778c190-89 334-107 514-56 178 50 320 50 506-45 203-103 397-115 780 21v502H0z"/>
  <path fill="#e8f2ff" fill-opacity=".8" d="M0 864c253-78 437-37 651-2 226 37 463-49 642-93 189-47 356-31 507 48v383H0z"/>
  <g filter="url(#soft)" opacity=".72">
    <circle cx="323" cy="341" r="170" fill="#4d8ee8"/>
    <circle cx="1314" cy="276" r="250" fill="#cfe3ff"/>
    <circle cx="1128" cy="783" r="210" fill="#7db2ff"/>
  </g>
  <g fill="none" stroke-linecap="round" stroke-linejoin="round">
    <path stroke="#f8fbff" stroke-opacity=".84" stroke-width="32" d="M651 620c66-89 156-139 252-139 120 0 212 76 292 176"/>
    <path stroke="#102d54" stroke-opacity=".5" stroke-width="22" d="M687 725c70 46 143 69 220 69 95 0 183-35 264-104"/>
    <path stroke="#f8fbff" stroke-opacity=".74" stroke-width="30" d="M766 551c-54-33-115-23-154 21-36 42-41 101-12 148"/>
    <path stroke="#f8fbff" stroke-opacity=".74" stroke-width="30" d="M1053 551c54-33 115-23 154 21 36 42 41 101 12 148"/>
  </g>
  <g fill="#14233b" opacity=".18">
    <circle cx="714" cy="486" r="34"/>
    <circle cx="1094" cy="486" r="34"/>
  </g>
</svg>
